# xmcd
#
# Track frame offsets:
#	150
#	3246
#	30155
#	49461
#	73288
#	104134
#	128193
#	152475
#	174906
#	196496
#	225020
#
# Disc length: 3310 seconds
#
# Revision: 0
# Processed by: cddbd v1.5.2PL0 Copyright (c) Steve Scherf et al.
# Submitted via: EZCDAudioConverter 8.0.2.1
#
DISCID=860cec0b
DTITLE=Various Artist - 10 Năm Làn Sóng Xanh [CD2)
DYEAR=2007
DGENRE=Country
TTITLE0=V.A - Nhạc Hiệu Làn Sóng Xanh
TTITLE1=Mỹ Linh - Hương ngọc lan
TTITLE2=Hồ Quỳnh Hương - Với anh em vẫn là cô bé
TTITLE3=Phương Thanh - Khi giấc mơ về
TTITLE4=Hồng Nhung - Một mình
TTITLE5=Đan Trường - Đi về nơi xa
TTITLE6=Duy Mạnh - Kiếp đỏ đen
TTITLE7=Lam Trường - Bảy sắc cầu vồng
TTITLE8=Quang Dũng - Còn đó chút hồng phai
TTITLE9=Quang Linh - Ca dao em và tôi
TTITLE10=Cẩm Ly - Phố hoa
EXTD=
EXTT0=
EXTT1=
EXTT2=
EXTT3=
EXTT4=
EXTT5=
EXTT6=
EXTT7=
EXTT8=
EXTT9=
EXTT10=
PLAYORDER=
